HIERARCHY
ROOT hips
{
  OFFSET 0 10.6860622 2.3727825e-15
  CHANNELS 6 Xposition Yposition Zposition Yrotation Xrotation Zrotation
  JOINT leftUpperLeg
  {
    OFFSET 0.6642549969 -0.9402397400000004 0
    CHANNELS 3 Yrotation Xrotation Zrotation
    JOINT leftLowerLeg
    {
      OFFSET 0 -3.997221335632195 0
      CHANNELS 3 Yrotation Xrotation Zrotation
      JOINT leftFoot
      {
        OFFSET -0.13777839790000004 -4.6145792000000005 -0.22186036399999998
        CHANNELS 3 Yrotation Xrotation Zrotation
        JOINT leftToes
        {
          OFFSET -0.03777410834999995 -0.9130806927000008 0.85230013
          CHANNELS 3 Yrotation Xrotation Zrotation
          End Site
          {
            OFFSET -0.03777410834999995 -0.9130806927000008 0.85230013
          }
        }
      }
    }
  }
  JOINT rightUpperLeg
  {
    OFFSET -0.6642778626 -0.9402397400000004 0
    CHANNELS 3 Yrotation Xrotation Zrotation
    JOINT rightLowerLeg
    {
      OFFSET 0 -3.997221452859387 0
      CHANNELS 3 Yrotation Xrotation Zrotation
      JOINT rightFoot
      {
        OFFSET 0.1377926176 -4.6145792000000005 -0.22185782299999995
        CHANNELS 3 Yrotation Xrotation Zrotation
        JOINT rightToes
        {
          OFFSET 0.037780746850000047 -0.9130806927000008 0.85230167
          CHANNELS 3 Yrotation Xrotation Zrotation
          End Site
          {
            OFFSET 0.037780746850000047 -0.9130806927000008 0.85230167
          }
        }
      }
    }
  }
  JOINT spine
  {
    OFFSET 0 0.13988381660000015 0
    CHANNELS 3 Yrotation Xrotation Zrotation
    JOINT chest
    {
      OFFSET 0 0.6191039003973773 0
      CHANNELS 3 Yrotation Xrotation Zrotation
      JOINT upperChest
      {
        OFFSET 0 0.9855186130586943 0
        CHANNELS 3 Yrotation Xrotation Zrotation
        JOINT leftShoulder
        {
          OFFSET 0.1807663869 1.5087829790000005 0
          CHANNELS 3 Yrotation Xrotation Zrotation
          JOINT leftUpperArm
          {
            OFFSET 0.5985063006419806 0 0
            CHANNELS 3 Yrotation Xrotation Zrotation
            JOINT leftLowerArm
            {
              OFFSET 2.2993332369501065 0 0
              CHANNELS 3 Yrotation Xrotation Zrotation
              JOINT leftHand
              {
                OFFSET 2.395047042602395 0 0
                CHANNELS 3 Yrotation Xrotation Zrotation
                JOINT leftIndexProximal
                {
                  OFFSET 0.5766295810000004 0.04556643899499946 0.17265095988184
                  CHANNELS 3 Yrotation Xrotation Zrotation
                  JOINT leftIndexIntermediate
                  {
                    OFFSET 0.2957229000000008 -0.019352197700001517 -0.007932640616999987
                    CHANNELS 3 Yrotation Xrotation Zrotation
                    JOINT leftIndexDistal
                    {
                      OFFSET 0.19008243099999922 -0.012484908149998475 -0.002786250786000012
                      CHANNELS 3 Yrotation Xrotation Zrotation
                      End Site
                      {
                        OFFSET 0.19008243099999922 -0.012484908149998475 -0.002786250786000012
                      }
                    }
                  }
                }
                JOINT leftMiddleProximal
                {
                  OFFSET 0.5834975091000001 0.0524350405149987 0.02204081888183999
                  CHANNELS 3 Yrotation Xrotation Zrotation
                  JOINT leftMiddleIntermediate
                  {
                    OFFSET 0.33880573540000003 -0.019871473270000717 -0.00000971183179999946
                    CHANNELS 3 Yrotation Xrotation Zrotation
                    JOINT leftMiddleDistal
                    {
                      OFFSET 0.20676022730000088 -0.012221336379999448 0.0001471936708000235
                      CHANNELS 3 Yrotation Xrotation Zrotation
                      End Site
                      {
                        OFFSET 0.20676022730000088 -0.012221336379999448 0.0001471936708000235
                      }
                    }
                  }
                }
                JOINT leftLittleProximal
                {
                  OFFSET 0.5344154683999995 -0.012880921405001189 -0.24414037221816004
                  CHANNELS 3 Yrotation Xrotation Zrotation
                  JOINT leftLittleIntermediate
                  {
                    OFFSET 0.21758961730000093 -0.011650919939999227 0.011893592810000034
                    CHANNELS 3 Yrotation Xrotation Zrotation
                    JOINT leftLittleDistal
                    {
                      OFFSET 0.1475273964999999 -0.008152365682999818 0.006001092492999946
                      CHANNELS 3 Yrotation Xrotation Zrotation
                      End Site
                      {
                        OFFSET 0.1475273964999999 -0.008152365682999818 0.006001092492999946
                      }
                    }
                  }
                }
                JOINT leftRingProximal
                {
                  OFFSET 0.5799399463000003 0.026911854694997794 -0.12150566991816003
                  CHANNELS 3 Yrotation Xrotation Zrotation
                  JOINT leftRingIntermediate
                  {
                    OFFSET 0.26167887460000006 -0.013480186499999602 0.010996293000000053
                    CHANNELS 3 Yrotation Xrotation Zrotation
                    JOINT leftRingDistal
                    {
                      OFFSET 0.17667108799999987 -0.008990287899999228 0.0055541023999999065
                      CHANNELS 3 Yrotation Xrotation Zrotation
                      End Site
                      {
                        OFFSET 0.17667108799999987 -0.008990287899999228 0.0055541023999999065
                      }
                    }
                  }
                }
                JOINT leftThumbProximal
                {
                  OFFSET 0.11018806699999972 -0.09448718900500053 0.17047963138184
                  CHANNELS 3 Yrotation Xrotation Zrotation
                  JOINT leftThumbIntermediate
                  {
                    OFFSET 0.31062601459999983 -0.08126270900000132 0.15443142000000007
                    CHANNELS 3 Yrotation Xrotation Zrotation
                    JOINT leftThumbDistal
                    {
                      OFFSET 0.21627175790000086 -0.08833193599999878 0.018771167799999988
                      CHANNELS 3 Yrotation Xrotation Zrotation
                      End Site
                      {
                        OFFSET 0.21627175790000086 -0.08833193599999878 0.018771167799999988
                      }
                    }
                  }
                }
              }
            }
          }
        }
        JOINT neck
        {
          OFFSET 0 1.5463305265074576 0
          CHANNELS 3 Yrotation Xrotation Zrotation
          JOINT head
          {
            OFFSET 0 0.8456443600000344 0
            CHANNELS 3 Yrotation Xrotation Zrotation
            JOINT leftEye
            {
              OFFSET 0.30408573140000006 0.5104519199999995 0.1276382305
              CHANNELS 3 Yrotation Xrotation Zrotation
              End Site
              {
                OFFSET 0.30408573140000006 0.5104519199999995 0.1276382305
              }
            }
            JOINT rightEye
            {
              OFFSET -0.30409491089999996 0.5104519199999995 0.1276379445
              CHANNELS 3 Yrotation Xrotation Zrotation
              End Site
              {
                OFFSET -0.30409491089999996 0.5104519199999995 0.1276379445
              }
            }
            JOINT jaw
            {
              OFFSET -3.155239131000001e-7 -0.11984121820000082 0.60178107
              CHANNELS 3 Yrotation Xrotation Zrotation
              End Site
              {
                OFFSET -3.155239131000001e-7 -0.11984121820000082 0.60178107
              }
            }
          }
        }
        JOINT rightShoulder
        {
          OFFSET -0.1807303465 1.5087829790000005 0
          CHANNELS 3 Yrotation Xrotation Zrotation
          JOINT rightUpperArm
          {
            OFFSET -0.5985063796536958 0 0
            CHANNELS 3 Yrotation Xrotation Zrotation
            JOINT rightLowerArm
            {
              OFFSET -2.2993322059002854 0 0
              CHANNELS 3 Yrotation Xrotation Zrotation
              JOINT rightHand
              {
                OFFSET -2.395045314457259 0 0
                CHANNELS 3 Yrotation Xrotation Zrotation
                JOINT rightIndexProximal
                {
                  OFFSET -0.5764487688300002 0.0441371204405987 0.17361932004999997
                  CHANNELS 3 Yrotation Xrotation Zrotation
                  JOINT rightIndexIntermediate
                  {
                    OFFSET -0.29573011380000047 -0.01934826376999843 -0.007698921482999974
                    CHANNELS 3 Yrotation Xrotation Zrotation
                    JOINT rightIndexDistal
                    {
                      OFFSET -0.19008373999999884 -0.012503266380000655 -0.0026365778999999897
                      CHANNELS 3 Yrotation Xrotation Zrotation
                      End Site
                      {
                        OFFSET -0.19008373999999884 -0.012503266380000655 -0.0026365778999999897
                      }
                    }
                  }
                }
                JOINT rightMiddleProximal
                {
                  OFFSET -0.5834852037300005 0.05211639405060153 0.02307162440000001
                  CHANNELS 3 Yrotation Xrotation Zrotation
                  JOINT rightMiddleIntermediate
                  {
                    OFFSET -0.33880114510000003 -0.019952774050000954 0.0002455003561999819
                    CHANNELS 3 Yrotation Xrotation Zrotation
                    JOINT rightMiddleDistal
                    {
                      OFFSET -0.20675694929999955 -0.012273788999999091 0.00030209124000002766
                      CHANNELS 3 Yrotation Xrotation Zrotation
                      End Site
                      {
                        OFFSET -0.20675694929999955 -0.012273788999999091 0.00030209124000002766
                      }
                    }
                  }
                }
                JOINT rightLittleProximal
                {
                  OFFSET -0.5346811737299992 -0.011214256288399227 -0.24363941305000003
                  CHANNELS 3 Yrotation Xrotation Zrotation
                  JOINT rightLittleIntermediate
                  {
                    OFFSET -0.21757715980000092 -0.011771559690000988 0.01201554387
                    CHANNELS 3 Yrotation Xrotation Zrotation
                    JOINT rightLittleDistal
                    {
                      OFFSET -0.1475201849000004 -0.00822055339600003 0.006082065407000015
                      CHANNELS 3 Yrotation Xrotation Zrotation
                      End Site
                      {
                        OFFSET -0.1475201849000004 -0.00822055339600003 0.006082065407000015
                      }
                    }
                  }
                }
                JOINT rightRingProximal
                {
                  OFFSET -0.5800810755299999 0.027657985680600072 -0.12066365025000003
                  CHANNELS 3 Yrotation Xrotation Zrotation
                  JOINT rightRingIntermediate
                  {
                    OFFSET -0.26166445029999974 -0.013623118409999302 0.011164098990000045
                    CHANNELS 3 Yrotation Xrotation Zrotation
                    JOINT rightRingDistal
                    {
                      OFFSET -0.17666387530000027 -0.009072900100000503 0.005668185599999959
                      CHANNELS 3 Yrotation Xrotation Zrotation
                      End Site
                      {
                        OFFSET -0.17666387530000027 -0.009072900100000503 0.005668185599999959
                      }
                    }
                  }
                }
                JOINT rightThumbProximal
                {
                  OFFSET -0.10997596379000074 -0.09577489355940072 0.16989765924999997
                  CHANNELS 3 Yrotation Xrotation Zrotation
                  JOINT rightThumbIntermediate
                  {
                    OFFSET -0.31036620999999986 -0.08229339117999834 0.15440884469999996
                    CHANNELS 3 Yrotation Xrotation Zrotation
                    JOINT rightThumbDistal
                    {
                      OFFSET -0.21631306399999906 -0.08825326400000111 0.018656797720000014
                      CHANNELS 3 Yrotation Xrotation Zrotation
                      End Site
                      {
                        OFFSET -0.21631306399999906 -0.08825326400000111 0.018656797720000014
                      }
                    }
                  }
                }
              }
            }
          }
        }
      }
    }
  }
}
MOTION
Frames: 9
Frame Time: 0.03333333333333333
0 11.682712981546562 0 0 0 0 0 0 -5.826343164929014 -0.3712483961610101 -3.6333298826370974 5.838118207697276 0 0 0 0 0 0 0 0 5.826343164929014 0.3712483961610101 -3.6333298826370974 -5.838118207697276 0 0 0 0 0 0 0 -4.610651315171937 0 0 3.0831277533083026 0 0 0 0 0 1.5275236235667615 0 0 0 0 0 0 0 0 0 0 0 0 0 0 0 0 0 0 0 0 0 0 0 0 0 0 0 0 0 0 0 0 0 0 0 0 0 0 0 0 0 0 0 0 0 0 0 0 0 0 0 0 0 0 0 0 1.5275236235667615 0 0 0 0 0 0 0 0 0 0 0 0 0 0 1.5275236235667615 0 0 0 0 0 0 0 0 0 0 0 0 0 0 0 0 0 0 0 0 0 0 0 0 0 0 0 0 0 0 0 0 0 0 0 0 0 0 0 0 0 0 0 0 0 0 0 0 0 0 0 0 0 0 0
-11.809732844649416 -10.07322438200052 0 89.9991385885424 -1.0010600831272156 -90.00260939821932 -7.4979300911746805 -14.634403629532569 -15.727340461521496 17.716457896404872 43.60824840498462 24.108762151918178 4.13331889767715 66.61084069780577 86.37160029524406 0 0 0 -58.29057605974749 -55.75115436420559 4.042024127648362 160.91537706469478 54.10971242142361 -170.8670898343849 24.87706503604675 -3.002778088654889 12.093704352286936 0 0 0 -0.3904723314247688 -5.176387775571727 -0.28061153114938997 -0.9331300786427176 2.3702481306445526 -1.4287001830811923 0 0 0 6.394935090353881 0.844701684274797 13.707134379742165 -136.38411492467364 -68.68255796295455 43.31851454389593 -18.907846046641165 -31.671375506871904 -5.7055464679176096 -4.4792841694113195 20.029822643940943 -72.55333485658207 0 0 0 0 0 0 0 0 0 0 0 0 0 0 0 0 0 0 0 0 0 0 0 0 0 0 0 0 0 0 0 0 0 0 0 0 0 0 0 0 0 0 0 0 0 -0.06292661626485496 0.744078244298693 3.8271379094855895 -0.6791437751093492 -1.51151891763048 19.171626670688177 0 0 0 0 0 0 0 0 0 -8.187736416688464 0.4382404159920929 -18.459695470114042 139.3331889945838 -67.21290347612414 -46.12266418469335 41.38318205819469 -36.01155392647827 -1.5176770474983683 0 0 51.99678329852902 0 0 0 0 0 0 0 0 0 0 0 0 0 0 0 0 0 0 0 0 0 0 0 0 0 0 0 0 0 0 0 0 0 0 0 0 0 0 0 0 0 0 0 0 0
-11.809732844649416 -10.07322438200052 0 89.9991385885424 -1.0010600831272156 -90.00260939821932 -7.4979300911746805 -14.6344053943342 -15.727340461521496 17.716460454876234 43.60825312149348 24.10876407847082 4.13331889767715 66.61084069780577 86.37160029524406 0 0 0 -58.29057605974749 -55.75115436420559 4.042024127648362 160.91537706469478 54.10971242142361 -170.8670898343849 24.87706503604675 -3.002778088654889 12.093704352286936 0 0 0 -0.3904723314247688 -5.176387775571727 -0.28061153114938997 -0.9331300786427176 2.3702481306445526 -1.4287001830811923 0 0 0 6.394935090353881 0.844701684274797 13.707134379742165 -136.38411492467364 -68.68255796295455 43.31851454389593 -18.907846046641165 -31.671375506871904 -5.7055464679176096 -4.4792841694113195 20.029822643940943 -72.55333485658207 0 0 0 0 0 0 0 0 0 0 0 0 0 0 0 0 0 0 0 0 0 0 0 0 0 0 0 0 0 0 0 0 0 0 0 0 0 0 0 0 0 0 0 0 0 -0.06380784494423895 0.7591700454577082 4.137104172605166 -0.799181837549141 -1.5332681542039288 19.368950733598258 0 0 0 0 0 0 0 0 0 -8.187736416688464 0.4382404159920929 -18.459695470114042 139.3331889945838 -67.21290347612414 -46.12266418469335 41.38318205819469 -36.01155392647827 -1.5176770474983683 0 0 51.99678329852902 0 0 0 0 0 0 0 0 0 0 0 0 0 0 0 0 0 0 0 0 0 0 0 0 0 0 0 0 0 0 0 0 0 0 0 0 0 0 0 0 0 0 0 0 0
-11.809732844649416 -10.07322438200052 0 89.9991385885424 -1.0010600831272156 -90.00260939821932 -7.4979300911746805 -14.634403629532569 -15.727340461521496 17.716461578082306 43.60825312149348 24.10876600502375 4.13331889767715 66.61084069780577 86.37160029524406 0 0 0 -58.29057605974749 -55.75115436420559 4.042024127648362 160.91537431205333 54.10971242142361 -170.86708962868838 24.87706503604675 -3.002778088654889 12.093704352286936 0 0 0 -0.3904723314247688 -5.176387775571727 -0.28061153114938997 -0.9331300786427176 2.3702481306445526 -1.4287001830811923 0 0 0 6.394935090353881 0.844701684274797 13.707134379742165 -136.3840747594819 -68.68254856882366 43.31847338629987 -18.907846046641165 -31.671375506871904 -5.7055464679176096 -4.4792841694113195 20.029822643940943 -72.55333485658207 0 0 0 0 0 0 0 0 0 0 0 0 0 0 0 0 0 0 0 0 0 0 0 0 0 0 0 0 0 0 0 0 0 0 0 0 0 0 0 0 0 0 0 0 0 -0.06460673746416622 0.7742724123394481 4.447186851669736 -0.9193193548514839 -1.5546095711755434 19.566353544433035 0 0 0 0 0 0 0 0 0 -8.187736416688464 0.4382404159920929 -18.459697089849644 139.3331775025483 -67.21291229364279 -46.12264890576533 41.38318801698192 -36.01155814838608 -1.517679553376744 0 0 51.99678329852902 0 0 0 0 0 0 0 0 0 0 0 0 0 0 0 0 0 0 0 0 0 0 0 0 0 0 0 0 0 0 0 0 0 0 0 0 0 0 0 0 0 0 0 0 0
-11.809732844649416 -10.07322438200052 0 89.9991385885424 -1.0010600831272156 -90.00260939821932 -7.4979300911746805 -14.6344053943342 -15.727341418255058 17.716460454876234 43.60825312149348 24.10876407847082 4.133313803042999 66.61084069780577 86.37159573416142 0 0 0 -58.29059056035191 -55.75115436420559 4.042031365092596 160.91537706469478 54.10971242142361 -170.86708747183104 24.87706503604675 -3.002778088654889 12.093704352286936 0 0 0 -0.3904723314247688 -5.176387775571727 -0.28061153114938997 -0.9331300786427176 2.3702481306445526 -1.4287001830811923 0 0 0 6.394935090353881 0.844701684274797 13.707134379742165 -136.38411492467364 -68.68255796295455 43.31851454389593 -18.907845448856484 -31.671383532253103 -5.705546866843575 -4.4792841694113195 20.029822643940943 -72.55333485658207 0 0 0 0 0 0 0 0 0 0 0 0 0 0 0 0 0 0 0 0 0 0 0 0 0 0 0 0 0 0 0 0 0 0 0 0 0 0 0 0 0 0 0 0 0 -0.06532430606893946 0.7893831047364651 4.757377184396214 -1.0395544445436844 -1.5755400631247949 19.76385257845943 0 0 0 0 0 0 0 0 0 -8.187736416688464 0.4382404159920929 -18.459695470114042 139.3331889945838 -67.21290347612414 -46.12266418469335 41.38318205819469 -36.01155392647827 -1.5176770474983683 0 0 51.99678329852902 0 0 0 0 0 0 0 0 0 0 0 0 0 0 0 0 0 0 0 0 0 0 0 0 0 0 0 0 0 0 0 0 0 0 0 0 0 0 0 0 0 0 0 0 0
-11.809732844649416 -10.07322438200052 0 89.9991385885424 -1.0010600831272156 -90.00260939821932 -7.4979300911746805 -14.6344053943342 -15.727340461521496 17.716459019610877 43.60824840498462 24.108762151918178 4.13331889767715 66.61084069780577 86.37160029524406 0 0 0 -58.290594127945276 -55.75116043237547 4.042035197682796 160.91537706469478 54.10971242142361 -170.8670898343849 24.87706503604675 -3.002778088654889 12.093704352286936 0 0 0 -0.3904723314247688 -5.176387775571727 -0.28061153114938997 -0.9331300786427176 2.3702481306445526 -1.4287001830811923 0 0 0 6.394935090353881 0.844701684274797 13.707136038838177 -136.38411492467364 -68.68255796295455 43.31851454389593 -18.907846046641165 -31.671375506871904 -5.7055464679176096 -4.479286434320309 20.029826278897858 -72.5533365904501 0 0 0 0 0 0 0 0 0 0 0 0 0 0 0 0 0 0 0 0 0 0 0 0 0 0 0 0 0 0 0 0 0 0 0 0 0 0 0 0 0 0 0 0 0 -0.06596058443958401 0.8045038848714146 5.067675528423138 -1.1598846218646326 -1.5960603678837633 19.961422570532797 0 0 0 0 0 0 0 0 0 -8.187736416688464 0.4382404159920929 -18.459695470114042 139.33312253727638 -67.21290347612414 -46.12259231356739 41.38318205819469 -36.01155392647827 -1.5176770474983683 0 0 51.99678809223532 0 0 0 0 0 0 0 0 0 0 0 0 0 0 0 0 0 0 0 0 0 0 0 0 0 0 0 0 0 0 0 0 0 0 0 0 0 0 0 0 0 0 0 0 0
-11.809732844649416 -10.07322438200052 0 89.9991385885424 -1.0010600831272156 -90.00260939821932 -7.4979300911746805 -14.6344053943342 -15.727340461521496 17.716461578082306 43.60825312149348 24.10876623101872 4.13331889767715 66.61084069780577 86.37160029524406 0 0 0 -58.29057605974749 -55.75115436420559 4.042024127648362 160.91537706469478 54.10971242142361 -170.86708747183104 24.87706503604675 -3.002778088654889 12.093705188259943 0 0 0 -0.3904723314247688 -5.176387775571727 -0.28061153114938997 -0.9331300786427176 2.3702481306445526 -1.4287001830811923 0 0 0 6.394936363184135 0.844701684274797 13.707136868386176 -136.38411556648754 -68.68256735708937 43.318520404024184 -18.907846046641165 -31.671375506871904 -5.7055464679176096 -4.479285528356715 20.02982446141939 -72.55333485658207 0 0 0 0 0 0 0 0 0 0 0 0 0 0 0 0 0 0 0 0 0 0 0 0 0 0 0 0 0 0 0 0 0 0 0 0 0 0 0 0 0 0 0 0 0 -0.06651463403350634 0.8196323524244209 5.378075155856961 -1.2803065155888569 -1.6161691947147188 20.159075017282404 0 0 0 0 0 0 0 0 0 -8.187736416688464 0.4382404159920929 -18.459695470114042 139.3331908789377 -67.21292111116466 -46.12266467333557 41.38318801698192 -36.01155814838608 -1.5176758605033462 0 0 51.99678809223532 0 0 0 0 0 0 0 0 0 0 0 0 0 0 0 0 0 0 0 0 0 0 0 0 0 0 0 0 0 0 0 0 0 0 0 0 0 0 0 0 0 0 0 0 0
-11.809732844649416 -10.07322438200052 0 89.9991365888727 -1.001068088476999 -90.00260939821932 -7.49792746660691 -14.63440186473095 -15.727340461521496 17.716457896404872 43.60824840498462 24.10875999937033 4.13332516541925 66.61083209499567 86.371598969415 0 0 0 -58.29055639680615 -55.751148296036654 4.042012728716648 160.91538034573588 54.10971242142361 -170.8670898343849 24.87706503604675 -3.002778088654889 12.093704352286936 0 0 0 -0.3904723314247688 -5.176387775571727 -0.28061153114938997 -0.9331300786427176 2.3702481306445526 -1.4287001830811923 0 0 0 6.3949342418003745 0.844701684274797 13.707134379742165 -136.38411492467364 -68.68255796295455 43.31851454389593 -18.907846046641165 -31.671375506871904 -5.705545469714749 -4.479281904502317 20.02981900898411 -72.55333312271408 0 0 0 0 0 0 0 0 0 0 0 0 0 0 0 0 0 0 0 0 0 0 0 0 0 0 0 0 0 0 0 0 0 0 0 0 0 0 0 0 0 0 0 0 0 -0.0669875080167506 0.8347682417039448 5.688573106303132 -1.4008191758878628 -1.6358653595307482 20.35680741321227 0 0 0 0 0 0 0 0 0 -8.18773472649724 0.43824134983433477 -18.4596938503784 139.33324494852167 -67.21290347612414 -46.12272028826241 41.383179267126835 -36.01155392647827 -1.5176783663817248 0 0 51.99678329852902 0 0 0 0 0 0 0 0 0 0 0 0 0 0 0 0 0 0 0 0 0 0 0 0 0 0 0 0 0 0 0 0 0 0 0 0 0 0 0 0 0 0 0 0 0
-11.809732844649416 -10.07322438200052 0 89.99913858890723 -1.001068088476999 -90.00260939821932 -7.4979300911746805 -14.63440186473095 -15.727340461521496 17.716456461139813 43.60824368847612 24.108760225365824 4.1333302600517206 66.61083209499567 86.37160353049633 0 0 0 -58.29056414031582 -55.751148296036654 4.042014998619682 160.91537706469478 54.10971242142361 -170.8670898343849 24.87706503604675 -3.002778088654889 12.093704352286936 0 0 0 -0.3904723314247688 -5.176387775571727 -0.28061153114938997 -0.9331300786427176 2.3702481306445526 -1.4287001830811923 0 0 0 6.394935090353881 0.844701684274797 13.707134379742165 -136.38420205629083 -68.68256735708937 43.31860179026429 -18.907846046641165 -31.671371494181564 -5.705546068991699 -4.479282357484119 20.029822643940943 -72.55333312271408 0 0 0 0 0 0 0 0 0 0 0 0 0 0 0 0 0 0 0 0 0 0 0 0 0 0 0 0 0 0 0 0 0 0 0 0 0 0 0 0 0 0 0 0 0 -0.06737829164491632 0.8499101663163672 5.99916175113946 -1.521420005062765 -1.655149386411302 20.55461287298578 0 0 0 0 0 0 0 0 0 -8.187735571592853 0.43824134983433477 -18.4596938503784 139.33320670371697 -67.21290347612414 -46.12267640782966 41.38318205819469 -36.01155392647827 -1.5176770474983683 0 0 51.99678329852902 0 0 0 0 0 0 0 0 0 0 0 0 0 0 0 0 0 0 0 0 0 0 0 0 0 0 0 0 0 0 0 0 0 0 0 0 0 0 0 0 0 0 0 0 0
